<mxfile host="app.diagrams.net" modified="2023-06-13T13:55:23.114Z" agent="Mozilla/5.0 (X11; Linux x86_64; rv:109.0) Gecko/20100101 Firefox/114.0" etag="h9y7mnPp7FvxdjtVWOwh" version="21.2.9" type="device">
  <diagram name="Page-1" id="FS0bLl0MaGhydVAssqhy">
    <mxGraphModel dx="3240" dy="1493" grid="1" gridSize="10" guides="1" tooltips="1" connect="1" arrows="1" fold="1" page="1" pageScale="1" pageWidth="850" pageHeight="1100" math="0" shadow="0">
      <root>
        <mxCell id="0" />
        <mxCell id="1" parent="0" />
        <mxCell id="sFLqB9lJGvl52KyhdRgG-1" value="" style="rounded=1;whiteSpace=wrap;html=1;fillColor=none;" vertex="1" parent="1">
          <mxGeometry x="120" y="204" width="550" height="186" as="geometry" />
        </mxCell>
        <mxCell id="sFLqB9lJGvl52KyhdRgG-2" value="" style="shape=image;html=1;verticalAlign=top;verticalLabelPosition=bottom;labelBackgroundColor=#ffffff;imageAspect=0;aspect=fixed;image=https://cdn4.iconfinder.com/data/icons/essential-app-1/16/laptop-computer-website-mobile-128.png" vertex="1" parent="1">
          <mxGeometry x="130" y="230" width="128" height="128" as="geometry" />
        </mxCell>
        <mxCell id="sFLqB9lJGvl52KyhdRgG-3" value="" style="shape=image;html=1;verticalAlign=top;verticalLabelPosition=bottom;labelBackgroundColor=#ffffff;imageAspect=0;aspect=fixed;image=https://cdn1.iconfinder.com/data/icons/iconoir-vol-3/24/media-image-folder-128.png;imageBackground=default;" vertex="1" parent="1">
          <mxGeometry x="170" y="310" width="60" height="60" as="geometry" />
        </mxCell>
        <mxCell id="sFLqB9lJGvl52KyhdRgG-4" value="" style="shape=image;html=1;verticalAlign=top;verticalLabelPosition=bottom;labelBackgroundColor=#ffffff;imageAspect=0;aspect=fixed;image=https://cdn4.iconfinder.com/data/icons/scripting-and-programming-languages/512/Python_logo-128.png;imageBackground=default;" vertex="1" parent="1">
          <mxGeometry x="230" y="310" width="60" height="60" as="geometry" />
        </mxCell>
        <mxCell id="sFLqB9lJGvl52KyhdRgG-5" value="" style="endArrow=classic;html=1;rounded=0;exitX=1;exitY=0.5;exitDx=0;exitDy=0;strokeWidth=4;" edge="1" parent="1" source="sFLqB9lJGvl52KyhdRgG-2">
          <mxGeometry width="50" height="50" relative="1" as="geometry">
            <mxPoint x="400" y="490" as="sourcePoint" />
            <mxPoint x="550" y="294" as="targetPoint" />
          </mxGeometry>
        </mxCell>
        <mxCell id="sFLqB9lJGvl52KyhdRgG-6" value="" style="sketch=0;outlineConnect=0;fontColor=#232F3E;gradientColor=none;fillColor=#000000;strokeColor=none;dashed=0;verticalLabelPosition=bottom;verticalAlign=top;align=center;html=1;fontSize=12;fontStyle=0;aspect=fixed;pointerEvents=1;shape=mxgraph.aws4.bucket;" vertex="1" parent="1">
          <mxGeometry x="560" y="255" width="75" height="78" as="geometry" />
        </mxCell>
        <mxCell id="sFLqB9lJGvl52KyhdRgG-7" value="https (443)" style="text;html=1;align=center;verticalAlign=middle;resizable=0;points=[];autosize=1;strokeColor=none;fillColor=none;fontSize=18;" vertex="1" parent="1">
          <mxGeometry x="355" y="324" width="110" height="40" as="geometry" />
        </mxCell>
        <mxCell id="sFLqB9lJGvl52KyhdRgG-8" value="aws cli" style="text;html=1;align=center;verticalAlign=middle;resizable=0;points=[];autosize=1;strokeColor=none;fillColor=none;fontSize=18;" vertex="1" parent="1">
          <mxGeometry x="154" y="274" width="80" height="40" as="geometry" />
        </mxCell>
        <mxCell id="sFLqB9lJGvl52KyhdRgG-9" value="" style="shape=image;html=1;verticalAlign=top;verticalLabelPosition=bottom;labelBackgroundColor=#ffffff;imageAspect=0;aspect=fixed;image=https://cdn1.iconfinder.com/data/icons/iconoir-vol-3/24/media-image-folder-128.png;imageBackground=default;" vertex="1" parent="1">
          <mxGeometry x="600" y="310" width="60" height="60" as="geometry" />
        </mxCell>
        <mxCell id="sFLqB9lJGvl52KyhdRgG-10" value="" style="shape=image;html=1;verticalAlign=top;verticalLabelPosition=bottom;labelBackgroundColor=#ffffff;imageAspect=0;aspect=fixed;image=https://cdn1.iconfinder.com/data/icons/iconoir-vol-3/24/media-image-folder-128.png;imageBackground=default;" vertex="1" parent="1">
          <mxGeometry x="380" y="264" width="60" height="60" as="geometry" />
        </mxCell>
        <mxCell id="sFLqB9lJGvl52KyhdRgG-11" value="" style="shape=image;html=1;verticalAlign=top;verticalLabelPosition=bottom;labelBackgroundColor=#ffffff;imageAspect=0;aspect=fixed;image=https://cdn4.iconfinder.com/data/icons/essential-app-1/16/laptop-computer-website-mobile-128.png" vertex="1" parent="1">
          <mxGeometry x="270" y="449" width="128" height="128" as="geometry" />
        </mxCell>
        <mxCell id="sFLqB9lJGvl52KyhdRgG-12" value="" style="shape=image;html=1;verticalAlign=top;verticalLabelPosition=bottom;labelBackgroundColor=#ffffff;imageAspect=0;aspect=fixed;image=https://cdn4.iconfinder.com/data/icons/scripting-and-programming-languages/512/Python_logo-128.png;imageBackground=default;" vertex="1" parent="1">
          <mxGeometry x="370" y="529" width="60" height="60" as="geometry" />
        </mxCell>
        <mxCell id="sFLqB9lJGvl52KyhdRgG-13" value="aws cli" style="text;html=1;align=center;verticalAlign=middle;resizable=0;points=[];autosize=1;strokeColor=none;fillColor=none;fontSize=18;" vertex="1" parent="1">
          <mxGeometry x="294" y="493" width="80" height="40" as="geometry" />
        </mxCell>
        <mxCell id="sFLqB9lJGvl52KyhdRgG-14" value="setup" style="text;html=1;align=center;verticalAlign=middle;resizable=0;points=[];autosize=1;strokeColor=none;fillColor=none;fontSize=24;" vertex="1" parent="1">
          <mxGeometry x="25" y="274" width="80" height="40" as="geometry" />
        </mxCell>
        <mxCell id="sFLqB9lJGvl52KyhdRgG-15" value="" style="endArrow=classic;html=1;rounded=0;exitX=0.99;exitY=0.334;exitDx=0;exitDy=0;strokeWidth=4;exitPerimeter=0;" edge="1" parent="1" source="sFLqB9lJGvl52KyhdRgG-11">
          <mxGeometry width="50" height="50" relative="1" as="geometry">
            <mxPoint x="470" y="512.5" as="sourcePoint" />
            <mxPoint x="630" y="492" as="targetPoint" />
          </mxGeometry>
        </mxCell>
        <mxCell id="sFLqB9lJGvl52KyhdRgG-16" value="Amazon Rekognition Image" style="sketch=0;outlineConnect=0;fontColor=#232F3E;gradientColor=none;strokeColor=#ffffff;fillColor=#232F3E;dashed=0;verticalLabelPosition=middle;verticalAlign=bottom;align=center;html=1;whiteSpace=wrap;fontSize=10;fontStyle=1;spacing=3;shape=mxgraph.aws4.productIcon;prIcon=mxgraph.aws4.rekognition_image;" vertex="1" parent="1">
          <mxGeometry x="640" y="469" width="90" height="130" as="geometry" />
        </mxCell>
        <mxCell id="sFLqB9lJGvl52KyhdRgG-17" value="" style="endArrow=classic;html=1;rounded=0;strokeWidth=4;" edge="1" parent="1">
          <mxGeometry width="50" height="50" relative="1" as="geometry">
            <mxPoint x="740" y="499" as="sourcePoint" />
            <mxPoint x="990" y="499" as="targetPoint" />
          </mxGeometry>
        </mxCell>
        <mxCell id="sFLqB9lJGvl52KyhdRgG-18" value="" style="sketch=0;outlineConnect=0;fontColor=#232F3E;gradientColor=none;fillColor=#000000;strokeColor=none;dashed=0;verticalLabelPosition=bottom;verticalAlign=top;align=center;html=1;fontSize=12;fontStyle=0;aspect=fixed;pointerEvents=1;shape=mxgraph.aws4.bucket;" vertex="1" parent="1">
          <mxGeometry x="990" y="479" width="75" height="78" as="geometry" />
        </mxCell>
        <mxCell id="sFLqB9lJGvl52KyhdRgG-19" value="" style="shape=image;html=1;verticalAlign=top;verticalLabelPosition=bottom;labelBackgroundColor=#ffffff;imageAspect=0;aspect=fixed;image=https://cdn1.iconfinder.com/data/icons/iconoir-vol-3/24/media-image-folder-128.png;imageBackground=default;" vertex="1" parent="1">
          <mxGeometry x="1030" y="534" width="60" height="60" as="geometry" />
        </mxCell>
        <mxCell id="sFLqB9lJGvl52KyhdRgG-20" value="" style="endArrow=classic;html=1;rounded=0;strokeWidth=4;" edge="1" parent="1">
          <mxGeometry width="50" height="50" relative="1" as="geometry">
            <mxPoint x="990" y="539" as="sourcePoint" />
            <mxPoint x="740" y="539" as="targetPoint" />
          </mxGeometry>
        </mxCell>
        <mxCell id="sFLqB9lJGvl52KyhdRgG-21" value="" style="endArrow=classic;html=1;rounded=0;strokeWidth=4;" edge="1" parent="1">
          <mxGeometry width="50" height="50" relative="1" as="geometry">
            <mxPoint x="623" y="538" as="sourcePoint" />
            <mxPoint x="430" y="539" as="targetPoint" />
          </mxGeometry>
        </mxCell>
        <mxCell id="sFLqB9lJGvl52KyhdRgG-22" value="labels" style="edgeLabel;html=1;align=center;verticalAlign=middle;resizable=0;points=[];fontSize=20;" vertex="1" connectable="0" parent="sFLqB9lJGvl52KyhdRgG-21">
          <mxGeometry x="-0.6988" y="2" relative="1" as="geometry">
            <mxPoint x="-59" y="-1" as="offset" />
          </mxGeometry>
        </mxCell>
        <mxCell id="sFLqB9lJGvl52KyhdRgG-23" value="" style="shape=image;html=1;verticalAlign=top;verticalLabelPosition=bottom;labelBackgroundColor=#ffffff;imageAspect=0;aspect=fixed;image=https://cdn4.iconfinder.com/data/icons/essential-app-1/16/laptop-computer-website-mobile-128.png" vertex="1" parent="1">
          <mxGeometry x="270" y="660" width="128" height="128" as="geometry" />
        </mxCell>
        <mxCell id="sFLqB9lJGvl52KyhdRgG-24" value="" style="shape=image;html=1;verticalAlign=top;verticalLabelPosition=bottom;labelBackgroundColor=#ffffff;imageAspect=0;aspect=fixed;image=https://cdn4.iconfinder.com/data/icons/scripting-and-programming-languages/512/Python_logo-128.png;imageBackground=default;" vertex="1" parent="1">
          <mxGeometry x="370" y="740" width="60" height="60" as="geometry" />
        </mxCell>
        <mxCell id="sFLqB9lJGvl52KyhdRgG-25" value="aws cli" style="text;html=1;align=center;verticalAlign=middle;resizable=0;points=[];autosize=1;strokeColor=none;fillColor=none;fontSize=18;" vertex="1" parent="1">
          <mxGeometry x="294" y="704" width="80" height="40" as="geometry" />
        </mxCell>
        <mxCell id="sFLqB9lJGvl52KyhdRgG-26" value="" style="sketch=0;outlineConnect=0;fontColor=#232F3E;gradientColor=none;fillColor=#000000;strokeColor=none;dashed=0;verticalLabelPosition=bottom;verticalAlign=top;align=center;html=1;fontSize=12;fontStyle=0;aspect=fixed;pointerEvents=1;shape=mxgraph.aws4.bucket;" vertex="1" parent="1">
          <mxGeometry x="674" y="685" width="75" height="78" as="geometry" />
        </mxCell>
        <mxCell id="sFLqB9lJGvl52KyhdRgG-27" value="" style="shape=image;html=1;verticalAlign=top;verticalLabelPosition=bottom;labelBackgroundColor=#ffffff;imageAspect=0;aspect=fixed;image=https://cdn1.iconfinder.com/data/icons/iconoir-vol-3/24/media-image-folder-128.png;imageBackground=default;" vertex="1" parent="1">
          <mxGeometry x="714" y="740" width="60" height="60" as="geometry" />
        </mxCell>
        <mxCell id="sFLqB9lJGvl52KyhdRgG-28" value="" style="shape=image;html=1;verticalAlign=top;verticalLabelPosition=bottom;labelBackgroundColor=#ffffff;imageAspect=0;aspect=fixed;image=https://cdn1.iconfinder.com/data/icons/iconoir-vol-3/24/media-image-folder-128.png;imageBackground=default;" vertex="1" parent="1">
          <mxGeometry x="860" y="520" width="43" height="43" as="geometry" />
        </mxCell>
        <mxCell id="sFLqB9lJGvl52KyhdRgG-29" value="" style="endArrow=classic;html=1;rounded=0;strokeWidth=4;" edge="1" parent="1">
          <mxGeometry width="50" height="50" relative="1" as="geometry">
            <mxPoint x="420" y="704" as="sourcePoint" />
            <mxPoint x="670" y="704" as="targetPoint" />
          </mxGeometry>
        </mxCell>
        <mxCell id="sFLqB9lJGvl52KyhdRgG-30" value="" style="endArrow=classic;html=1;rounded=0;strokeWidth=4;" edge="1" parent="1">
          <mxGeometry width="50" height="50" relative="1" as="geometry">
            <mxPoint x="670" y="744" as="sourcePoint" />
            <mxPoint x="420" y="744" as="targetPoint" />
          </mxGeometry>
        </mxCell>
        <mxCell id="sFLqB9lJGvl52KyhdRgG-31" value="" style="shape=image;html=1;verticalAlign=top;verticalLabelPosition=bottom;labelBackgroundColor=#ffffff;imageAspect=0;aspect=fixed;image=https://cdn1.iconfinder.com/data/icons/iconoir-vol-3/24/media-image-folder-128.png;imageBackground=default;" vertex="1" parent="1">
          <mxGeometry x="534" y="726" width="43" height="43" as="geometry" />
        </mxCell>
        <mxCell id="sFLqB9lJGvl52KyhdRgG-32" value="" style="endArrow=none;dashed=1;html=1;rounded=0;strokeWidth=3;entryX=0.5;entryY=1;entryDx=0;entryDy=0;exitX=0.5;exitY=0;exitDx=0;exitDy=0;" edge="1" parent="1" source="sFLqB9lJGvl52KyhdRgG-33" target="sFLqB9lJGvl52KyhdRgG-23">
          <mxGeometry width="50" height="50" relative="1" as="geometry">
            <mxPoint x="334" y="900" as="sourcePoint" />
            <mxPoint x="330" y="850" as="targetPoint" />
          </mxGeometry>
        </mxCell>
        <mxCell id="sFLqB9lJGvl52KyhdRgG-33" value="" style="shape=image;html=1;verticalAlign=top;verticalLabelPosition=bottom;labelBackgroundColor=#ffffff;imageAspect=0;aspect=fixed;image=https://cdn4.iconfinder.com/data/icons/essential-app-1/16/laptop-computer-website-mobile-128.png" vertex="1" parent="1">
          <mxGeometry x="270" y="890" width="128" height="128" as="geometry" />
        </mxCell>
        <mxCell id="sFLqB9lJGvl52KyhdRgG-34" value="" style="shape=image;html=1;verticalAlign=top;verticalLabelPosition=bottom;labelBackgroundColor=#ffffff;imageAspect=0;aspect=fixed;image=https://cdn1.iconfinder.com/data/icons/iconoir-vol-3/24/media-image-folder-128.png;imageBackground=default;" vertex="1" parent="1">
          <mxGeometry x="310" y="970" width="60" height="60" as="geometry" />
        </mxCell>
        <mxCell id="sFLqB9lJGvl52KyhdRgG-35" value="" style="shape=image;html=1;verticalAlign=top;verticalLabelPosition=bottom;labelBackgroundColor=#ffffff;imageAspect=0;aspect=fixed;image=https://cdn4.iconfinder.com/data/icons/scripting-and-programming-languages/512/Python_logo-128.png;imageBackground=default;" vertex="1" parent="1">
          <mxGeometry x="370" y="970" width="60" height="60" as="geometry" />
        </mxCell>
        <mxCell id="sFLqB9lJGvl52KyhdRgG-36" value="&lt;div style=&quot;font-size: 18px;&quot;&gt;annotation &lt;br style=&quot;font-size: 18px;&quot;&gt;&lt;/div&gt;&lt;div style=&quot;font-size: 18px;&quot;&gt;des images&lt;/div&gt;" style="text;html=1;align=center;verticalAlign=middle;resizable=0;points=[];autosize=1;strokeColor=none;fillColor=none;fontSize=18;" vertex="1" parent="1">
          <mxGeometry x="140" y="924" width="120" height="60" as="geometry" />
        </mxCell>
        <mxCell id="sFLqB9lJGvl52KyhdRgG-37" value="" style="endArrow=none;dashed=1;html=1;rounded=0;strokeWidth=3;entryX=0.5;entryY=0;entryDx=0;entryDy=0;exitX=0.5;exitY=1;exitDx=0;exitDy=0;" edge="1" parent="1" source="sFLqB9lJGvl52KyhdRgG-11" target="sFLqB9lJGvl52KyhdRgG-23">
          <mxGeometry width="50" height="50" relative="1" as="geometry">
            <mxPoint x="344" y="900" as="sourcePoint" />
            <mxPoint x="344" y="798" as="targetPoint" />
          </mxGeometry>
        </mxCell>
        <mxCell id="sFLqB9lJGvl52KyhdRgG-38" value="&lt;div&gt;téléchargement&lt;/div&gt;&lt;div&gt;des images&lt;br&gt;&lt;/div&gt;" style="text;html=1;align=center;verticalAlign=middle;resizable=0;points=[];autosize=1;strokeColor=none;fillColor=none;fontSize=18;" vertex="1" parent="1">
          <mxGeometry x="125" y="694" width="150" height="60" as="geometry" />
        </mxCell>
        <mxCell id="sFLqB9lJGvl52KyhdRgG-39" value="&lt;div&gt;obtention des&lt;/div&gt;&lt;div&gt;labels&lt;br&gt;&lt;/div&gt;" style="text;html=1;align=center;verticalAlign=middle;resizable=0;points=[];autosize=1;strokeColor=none;fillColor=none;fontSize=18;" vertex="1" parent="1">
          <mxGeometry x="130" y="483" width="130" height="60" as="geometry" />
        </mxCell>
        <mxCell id="sFLqB9lJGvl52KyhdRgG-40" value="&lt;div&gt;label&lt;/div&gt;&lt;div&gt;rekognition&lt;br&gt;&lt;/div&gt;" style="text;html=1;align=center;verticalAlign=middle;resizable=0;points=[];autosize=1;strokeColor=none;fillColor=none;fontSize=24;" vertex="1" parent="1">
          <mxGeometry x="-10" y="689" width="140" height="70" as="geometry" />
        </mxCell>
        <mxCell id="sFLqB9lJGvl52KyhdRgG-41" value="https (443)" style="text;html=1;align=center;verticalAlign=middle;resizable=0;points=[];autosize=1;strokeColor=none;fillColor=none;fontSize=18;" vertex="1" parent="1">
          <mxGeometry x="480" y="577" width="110" height="40" as="geometry" />
        </mxCell>
        <mxCell id="sFLqB9lJGvl52KyhdRgG-42" value="https (443)" style="text;html=1;align=center;verticalAlign=middle;resizable=0;points=[];autosize=1;strokeColor=none;fillColor=none;fontSize=18;" vertex="1" parent="1">
          <mxGeometry x="810" y="577" width="110" height="40" as="geometry" />
        </mxCell>
        <mxCell id="sFLqB9lJGvl52KyhdRgG-43" value="https (443)" style="text;html=1;align=center;verticalAlign=middle;resizable=0;points=[];autosize=1;strokeColor=none;fillColor=none;fontSize=18;" vertex="1" parent="1">
          <mxGeometry x="500.5" y="788" width="110" height="40" as="geometry" />
        </mxCell>
        <mxCell id="sFLqB9lJGvl52KyhdRgG-44" value="" style="curved=1;endArrow=classic;html=1;rounded=0;exitX=1;exitY=0.25;exitDx=0;exitDy=0;entryX=1;entryY=0.5;entryDx=0;entryDy=0;strokeWidth=4;" edge="1" parent="1" source="sFLqB9lJGvl52KyhdRgG-33" target="sFLqB9lJGvl52KyhdRgG-33">
          <mxGeometry width="50" height="50" relative="1" as="geometry">
            <mxPoint x="527" y="984" as="sourcePoint" />
            <mxPoint x="577" y="934" as="targetPoint" />
            <Array as="points">
              <mxPoint x="490" y="890" />
              <mxPoint x="490" y="980" />
            </Array>
          </mxGeometry>
        </mxCell>
        <mxCell id="sFLqB9lJGvl52KyhdRgG-45" value="" style="rounded=1;whiteSpace=wrap;html=1;fillColor=none;" vertex="1" parent="1">
          <mxGeometry x="124" y="449" width="986" height="591" as="geometry" />
        </mxCell>
      </root>
    </mxGraphModel>
  </diagram>
</mxfile>
